# Blender v2.79 (sub 0) OBJ File: 'cookieboxv2.blend'
# www.blender.org
mtllib cookieboxv2.mtl
o Cube_Cube.002
v -3.524267 0.067825 0.371668
v -3.524267 0.897907 0.371668
v -3.524267 0.067825 -0.458413
v -3.524267 0.897907 -0.458413
v -2.694186 0.067825 0.371668
v -2.694186 0.897907 0.371668
v -2.694186 0.067825 -0.458413
v -2.694186 0.897907 -0.458413
v -0.417483 0.897907 -0.458413
v -0.417483 0.067825 -0.458413
v -0.417483 0.067825 0.371668
v -0.417483 0.897907 0.371668
v -6.085549 0.067825 -0.458413
v -6.085549 0.067825 0.371668
v -6.085549 0.897907 0.371668
v -6.085549 0.897907 -0.458413
v -3.524267 0.897907 -2.308944
v -3.524267 0.067825 -2.308944
v -2.694186 0.067825 -2.308944
v -2.694186 0.897907 -2.308944
v -0.421928 0.896012 -2.301494
v -0.443752 0.066311 -2.313921
v -6.085549 0.897907 -2.308944
v -6.085549 0.067825 -2.308944
v -3.524267 0.067825 2.189780
v -3.524267 0.897907 2.189780
v -2.694186 0.897907 2.189780
v -2.694186 0.067825 2.189780
v -0.417483 0.897907 2.189780
v -0.417483 0.067825 2.189780
v -6.085549 0.067825 2.189780
v -6.085549 0.897907 2.189780
v -0.417483 0.858309 -0.419588
v -0.417483 0.858309 -2.093566
v -0.417483 0.107423 0.331297
v -0.417483 0.107423 1.975949
v -0.417483 0.107423 -0.419588
v -0.417483 0.858309 0.331297
v -0.417483 0.107423 -2.093566
v -0.417483 0.858309 1.975949
v -5.421508 0.858309 -0.419588
v -5.421508 0.858309 -2.093566
v -5.421508 0.107423 0.331297
v -5.421508 0.107423 1.975949
v -5.421508 0.107423 -0.419588
v -5.421508 0.858309 0.331297
v -5.421508 0.107423 -2.093566
v -5.421508 0.858309 1.975949
v -0.223591 1.081787 -0.461119
v -0.223591 1.081787 0.368962
v -0.223591 1.081787 -2.311650
v -0.223591 1.081787 2.187074
v -0.146140 0.897249 2.247913
v -0.146140 0.067168 2.247913
v -0.424551 0.898895 -2.524461
v -0.446375 0.069193 -2.536888
vt 0.361690 0.340571
vt 0.357942 0.411456
vt 0.354602 0.406295
vt 0.357916 0.345914
vt 0.841318 0.186253
vt 0.841331 0.136576
vt 0.891013 0.136591
vt 0.890997 0.186269
vt 0.120589 0.000122
vt 0.245858 0.000122
vt 0.249665 0.033382
vt 0.114474 0.037834
vt 0.730557 0.186231
vt 0.730552 0.136538
vt 0.841383 0.000305
vt 0.891065 0.000325
vt 0.470740 0.389511
vt 0.470740 0.339835
vt 0.520416 0.339835
vt 0.520416 0.389511
vt 0.890951 0.339558
vt 0.841273 0.339543
vt 0.680888 0.186237
vt 0.680886 0.136590
vt 0.680631 0.000645
vt 0.730323 0.001827
vt 0.730522 0.339513
vt 0.680845 0.339500
vt 0.631162 0.339835
vt 0.631162 0.389511
vt 0.115739 0.731571
vt 0.000122 0.385869
vt 0.004008 0.380775
vt 0.112099 0.699077
vt 0.181581 0.368238
vt 0.185263 0.368733
vt 0.175854 0.363435
vt 0.175587 0.364818
vt 0.183502 0.365141
vt 0.179531 0.363877
vt 0.361934 0.389511
vt 0.361934 0.339835
vt 0.999826 0.136628
vt 0.999808 0.186306
vt 0.411730 0.136411
vt 0.411698 0.186088
vt 0.411611 0.339369
vt 0.361934 0.339341
vt 0.362021 0.186057
vt 0.362052 0.136379
vt 0.362146 0.000122
vt 0.411825 0.000156
vt 0.242002 0.732914
vt 0.246996 0.693830
vt 0.005275 0.315461
vt 0.008476 0.320790
vt 0.177665 0.366900
vt 0.185237 0.367228
vt 0.361934 0.389755
vt 0.470739 0.389864
vt 0.470885 0.405856
vt 0.362079 0.405747
vt 0.520416 0.389915
vt 0.520562 0.405907
vt 0.630717 0.389755
vt 0.631308 0.406019
vt 0.361934 0.455978
vt 0.361934 0.406301
vt 0.378541 0.406262
vt 0.378541 0.455939
vt 0.378784 0.455970
vt 0.378784 0.406293
vt 0.392130 0.406262
vt 0.392130 0.455939
vt 0.520498 0.186155
vt 0.570169 0.186184
vt 0.570095 0.339454
vt 0.520419 0.339429
vt 0.570199 0.136517
vt 0.520529 0.136483
vt 0.520637 0.000236
vt 0.570315 0.000276
vt 0.999760 0.339591
vt 0.999878 0.000367
vn 1.0000 -0.0000 0.0000
vn 0.0000 -1.0000 0.0000
vn -1.0000 0.0000 0.0000
vn 0.0000 0.0000 -1.0000
vn 0.0006 0.0075 -1.0000
vn -0.0003 -1.0000 0.0004
vn 0.9986 0.0533 -0.0013
vn 0.0000 1.0000 0.0000
vn 0.0000 0.0000 1.0000
vn 0.9573 -0.2891 -0.0070
vn 0.9974 -0.0132 -0.0714
vn 0.6881 -0.7256 0.0000
vn 0.6858 -0.7277 -0.0005
vn -0.2095 0.0000 0.9778
vn 0.9996 -0.0261 -0.0121
vn 0.0004 1.0000 -0.0005
usemtl Material.001
s off
f 11/1/1 10/2/1 37/3/1 35/4/1
f 3/5/2 7/6/2 5/7/2 1/8/2
f 29/9/1 30/10/1 36/11/1 40/12/1
f 7/6/2 3/5/2 18/13/2 19/14/2
f 5/7/2 7/6/2 10/15/2 11/16/2
f 14/17/3 15/18/3 16/19/3 13/20/3
f 3/5/2 1/8/2 14/21/2 13/22/2
f 18/13/4 17/23/4 20/24/4 19/14/4
f 19/14/5 20/24/5 21/25/5 22/26/5
f 17/23/4 18/13/4 24/27/4 23/28/4
f 10/15/6 7/6/6 19/14/6 22/26/6
f 3/5/2 13/22/2 24/27/2 18/13/2
f 13/20/3 16/19/3 23/29/3 24/30/3
f 21/31/7 9/32/7 33/33/7 34/34/7
f 34/34/2 33/33/2 41/35/2 42/36/2
f 40/12/4 36/11/4 44/37/4 48/38/4
f 35/4/8 37/3/8 45/39/8 43/40/8
f 15/18/3 14/17/3 31/41/3 32/42/3
f 1/8/2 5/7/2 28/43/2 25/44/2
f 27/45/9 26/46/9 32/47/9 31/48/9 25/49/9 28/50/9 30/51/9 29/52/9
f 10/2/10 22/53/10 39/54/10 37/3/10
f 30/10/1 11/1/1 35/4/1 36/11/1
f 9/32/1 12/55/1 38/56/1 33/33/1
f 12/55/1 29/9/1 40/12/1 38/56/1
f 22/53/11 21/31/11 34/34/11 39/54/11
f 45/39/1 41/35/1 46/57/1 43/40/1
f 41/35/1 45/39/1 47/58/1 42/36/1
f 43/40/1 46/57/1 48/38/1 44/37/1
f 39/54/9 34/34/9 42/36/9 47/58/9
f 33/33/2 38/56/2 46/57/2 41/35/2
f 38/56/2 40/12/2 48/38/2 46/57/2
f 36/11/8 35/4/8 43/40/8 44/37/8
f 37/3/8 39/54/8 47/58/8 45/39/8
f 29/59/12 12/60/12 50/61/12 52/62/12
f 12/60/12 9/63/12 49/64/12 50/61/12
f 9/63/13 21/65/13 51/66/13 49/64/13
f 29/67/14 30/68/14 54/69/14 53/70/14
f 21/71/15 22/72/15 56/73/15 55/74/15
usemtl Material.001_cookiebox.png
f 2/75/8 4/76/8 16/77/8 15/78/8
f 16/77/8 4/76/8 17/23/8 23/28/8
f 8/79/8 6/80/8 12/81/8 9/82/8
f 8/79/8 4/76/8 2/75/8 6/80/8
f 14/21/2 1/8/2 25/44/2 31/83/2
f 8/79/16 9/82/16 21/25/16 20/24/16
f 5/7/2 11/16/2 30/84/2 28/43/2
f 4/76/8 8/79/8 20/24/8 17/23/8
f 6/80/8 2/75/8 26/46/8 27/45/8
f 12/81/8 6/80/8 27/45/8 29/52/8
f 2/75/8 15/78/8 32/47/8 26/46/8
